<?xml version="1.0" encoding="utf-8"?>
<!-- Generator: Adobe Illustrator 28.0.0, SVG Export Plug-In . SVG Version: 6.00 Build 0)  -->
<svg version="1.1"
	 id="svg4506" xmlns:svg="http://www.w3.org/2000/svg" xmlns:inkscape="http://www.inkscape.org/namespaces/inkscape" xmlns:cc="http://creativecommons.org/ns#" xmlns:sodipodi="http://sodipodi.sourceforge.net/DTD/sodipodi-0.dtd" xmlns:dc="http://purl.org/dc/elements/1.1/" xmlns:rdf="http://www.w3.org/1999/02/22-rdf-syntax-ns#" inkscape:version="0.92.0 r15299" sodipodi:docname="illumina.svg"
	 xmlns="http://www.w3.org/2000/svg" xmlns:xlink="http://www.w3.org/1999/xlink" x="0px" y="0px" viewBox="0 0 226.5 52.8"
	 style="enable-background:new 0 0 226.5 52.8;" xml:space="preserve">
<style type="text/css">
	.st0{fill:#FFFFFF;}
</style>
<sodipodi:namedview  bordercolor="#666666" borderopacity="1.0" fit-margin-bottom="0" fit-margin-left="0" fit-margin-right="0" fit-margin-top="0" id="base" inkscape:current-layer="layer1" inkscape:cx="112.25" inkscape:cy="25.399988" inkscape:document-units="mm" inkscape:pageopacity="0.0" inkscape:pageshadow="2" inkscape:window-height="744" inkscape:window-maximized="1" inkscape:window-width="1280" inkscape:window-x="-4" inkscape:window-y="-4" inkscape:zoom="3.5723831" pagecolor="#ffffff" showgrid="false" units="px">
	</sodipodi:namedview>
<g id="layer1" transform="translate(328.30067,-304.86947)" inkscape:groupmode="layer" inkscape:label="Layer 1">
	<g id="g4614" transform="translate(0.26458452,-0.26457483)">
		<path id="path4554" inkscape:connector-curvature="0" class="st0" d="M-326.5,324.8h5.9v31.3h-5.9V324.8z"/>
		<path id="path4556" inkscape:connector-curvature="0" class="st0" d="M-310.7,306.1h6v50h-5.9L-310.7,306.1z"/>
		<path id="path4558" inkscape:connector-curvature="0" class="st0" d="M-294.5,306.1h6v50h-5.9L-294.5,306.1z"/>
		<path id="path4560" inkscape:connector-curvature="0" class="st0" d="M-252.3,356.1h-5.9v-4.8h-0.1c-1.5,3.3-5.5,5.6-10.3,5.6
			c-6.1,0-11.4-3.6-11.4-12v-20.2h6v18.5c0,5.9,3.4,8.1,7.1,8.1c5,0,8.7-3.2,8.7-10.4v-16.1h6v31.3H-252.3z"/>
		<path id="path4562" inkscape:connector-curvature="0" class="st0" d="M-244.7,324.8h5.6v4.9h0.1c0.6-1.9,4.4-5.7,10-5.7
			c4.6,0,7.8,2,9.8,5.8c2.1-3.8,6.2-5.8,9.9-5.8c9.6,0,11.9,6.9,11.9,13.9v18.2h-5.9v-17.4c0-4.8-1-9.1-6.8-9.1s-8,3.9-8,9.5v17.1
			h-6v-16.4c0-5.9-0.9-10.2-6.6-10.2c-4.3,0-8.1,3.2-8.1,10.3v16.3h-5.8L-244.7,324.8z"/>
		<path id="path4564" inkscape:connector-curvature="0" class="st0" d="M-189.2,324.8h6v31.3h-6V324.8z"/>
		<path id="path4566" inkscape:connector-curvature="0" class="st0" d="M-174.5,324.8h5.9v4.8h0.1c1.5-3.3,5.5-5.6,10.3-5.6
			c6.1,0,11.4,3.6,11.4,12v20.2h-6v-18.5c0-5.9-3.4-8.1-7.1-8.1c-5,0-8.7,3.2-8.7,10.4v16.1h-6L-174.5,324.8L-174.5,324.8z"/>
		<path id="path4568" inkscape:connector-curvature="0" class="st0" d="M-118.9,341v2c0,4.2-2.3,9.1-8.9,9.1c-4.1,0-6.7-1.5-6.7-5.1
			c0-5,6.9-6,12.5-6L-118.9,341z M-135.4,332.3c2.2-1.7,4.4-3.6,8.9-3.6c5.1,0,7.5,3.4,7.5,6.6v1.3h-4.4c-9.5,0-17.2,2.8-17.2,10.8
			c0,6.1,5,9.4,10.8,9.4c4.8,0,8.3-1.5,11-5.6h0.1c0,1.6,0.1,3.2,0.2,4.8h5.3c-0.2-1.7-0.3-3.5-0.3-5.7v-16
			c0-5.4-3.8-10.4-13.1-10.4c-4.4,0-9.1,1.5-12.4,4.6L-135.4,332.3z"/>
		<path id="path4570" inkscape:connector-curvature="0" class="st0" d="M-323.6,309.8c-2.2,0-4,1.8-4,4c0,2.2,1.8,4,4,4
			c2.2,0,4-1.8,4-4C-319.6,311.6-321.4,309.8-323.6,309.8z"/>
		<path id="path4572" inkscape:connector-curvature="0" class="st0" d="M-109.1,325.8h0.9v-2h0.7l1.2,2h0.9l-1.3-2.1
			c0.7-0.1,1.2-0.5,1.2-1.3c0-0.9-0.6-1.5-1.7-1.5h-1.9V325.8z M-108.2,321.6h0.7c0.6,0,1.2,0,1.2,0.7c0,0.6-0.6,0.7-1.2,0.7h-0.7
			V321.6z M-111.7,323.4c0,2.4,1.9,4.3,4.3,4.3c2.4,0,4.3-1.9,4.3-4.3c0-2.4-1.9-4.3-4.3-4.3C-109.8,319.1-111.7,321-111.7,323.4z
			 M-111,323.4c0-1.9,1.6-3.5,3.5-3.5c1.9,0,3.5,1.6,3.5,3.5c0,1.9-1.6,3.5-3.5,3.5C-109.4,326.9-111,325.3-111,323.4z"/>
	</g>
</g>
</svg>
