<?xml version="1.0" encoding="utf-8"?>
<!-- Generator: Adobe Illustrator 28.0.0, SVG Export Plug-In . SVG Version: 6.00 Build 0)  -->
<svg version="1.1" id="svg2327" xmlns:svg="http://www.w3.org/2000/svg"
	 xmlns="http://www.w3.org/2000/svg" xmlns:xlink="http://www.w3.org/1999/xlink" x="0px" y="0px" viewBox="0 0 1029.2 260.9"
	 style="enable-background:new 0 0 1029.2 260.9;" xml:space="preserve">
<style type="text/css">
	.st0{fill:#FFFFFF;}
</style>
<g>
	<path class="st0" d="M748.2,183.6c15.3,0,27.7-12.4,27.7-27.7s-12.4-27.7-27.7-27.7c-15.3,0-27.7,12.4-27.7,27.7
		S732.9,183.6,748.2,183.6z"/>
	
		<ellipse transform="matrix(0.8507 -0.5257 0.5257 0.8507 39.1344 449.5119)" class="st0" cx="810.7" cy="155.9" rx="27.7" ry="27.7"/>
	<path class="st0" d="M873.3,183.6c15.3,0,27.7-12.4,27.7-27.7s-12.4-27.7-27.7-27.7c-15.3,0-27.7,12.4-27.7,27.7
		S858,183.6,873.3,183.6z"/>
	<path class="st0" d="M935.8,128.2c-15.3,0-27.7,12.4-27.7,27.7s12.4,27.7,27.7,27.7c15.3,0,27.7-12.4,27.7-27.7
		S951.1,128.2,935.8,128.2z"/>
	<path class="st0" d="M998.4,128.2c-15.3,0-27.7,12.4-27.7,27.7s12.4,27.7,27.7,27.7s27.7-12.4,27.7-27.7S1013.7,128.2,998.4,128.2z
		"/>
	<path class="st0" d="M748.2,121c15.3,0,27.7-12.4,27.7-27.7c0-15.3-12.4-27.7-27.7-27.7c-15.3,0-27.7,12.4-27.7,27.7
		C720.5,108.6,732.9,121,748.2,121z"/>
	<path class="st0" d="M810.7,121c15.3,0,27.7-12.4,27.7-27.7c0-15.3-12.4-27.7-27.7-27.7S783.1,78,783.1,93.3
		C783.1,108.6,795.5,121,810.7,121z"/>
	<path class="st0" d="M873.3,121c15.3,0,27.7-12.4,27.7-27.7c0-15.3-12.4-27.7-27.7-27.7c-15.3,0-27.7,12.4-27.7,27.7
		C845.6,108.6,858,121,873.3,121z"/>
	<path class="st0" d="M935.8,65.6c-15.3,0-27.7,12.4-27.7,27.7c0,15.3,12.4,27.7,27.7,27.7c15.3,0,27.7-12.4,27.7-27.7
		C963.5,78,951.1,65.6,935.8,65.6z"/>
	<path class="st0" d="M998.4,65.6c-15.3,0-27.7,12.4-27.7,27.7c0,15.3,12.4,27.7,27.7,27.7s27.7-12.4,27.7-27.7
		C1026,78,1013.7,65.6,998.4,65.6z"/>
	<path class="st0" d="M748.2,58.5c15.3,0,27.7-12.4,27.7-27.7c0-15.3-12.4-27.7-27.7-27.7c-15.3,0-27.7,12.4-27.7,27.7
		C720.5,46.1,732.9,58.5,748.2,58.5z"/>
	<path class="st0" d="M810.7,58.5c15.3,0,27.7-12.4,27.7-27.7c0-15.3-12.4-27.7-27.7-27.7s-27.7,12.4-27.7,27.7
		C783.1,46.1,795.5,58.5,810.7,58.5z"/>
	<path class="st0" d="M873.3,58.5c15.3,0,27.7-12.4,27.7-27.7c0-15.3-12.4-27.7-27.7-27.7c-15.3,0-27.7,12.4-27.7,27.7
		C845.6,46.1,858,58.5,873.3,58.5z"/>
	<path class="st0" d="M935.8,3.1c-15.3,0-27.7,12.4-27.7,27.7c0,15.3,12.4,27.7,27.7,27.7c15.3,0,27.7-12.4,27.7-27.7
		C963.5,15.5,951.1,3.1,935.8,3.1z"/>
	<path class="st0" d="M998.4,58.5c15.3,0,27.7-12.4,27.7-27.7c0-15.3-12.4-27.7-27.7-27.7s-27.7,12.4-27.7,27.7
		C970.7,46.1,983.1,58.5,998.4,58.5z"/>
	<path class="st0" d="M786.5,225.2c-0.1-18-15-32.2-33-32.1c-17.7,0-32.2,13.5-32.9,31.1c-0.7,18.4,15,33.3,33.5,33.5
		c6.1,0,10.6-1.4,15.2-3.3l5.6,5.9l13.8-3.3l-10.1-10.1C780.7,244.9,786.5,234.2,786.5,225.2z M769.7,237l-4.9-5.5l-13.9,2.2
		l9.5,10.2c-1.9,0.5-4.7,1.1-7.8,1c-10.8-0.5-18.8-9.8-18.4-20.6c0.4-10.5,8.9-18.7,19.4-18.6c10.6,0.1,18.7,8.6,19.2,19.2
		C773.1,229.8,771.3,235.4,769.7,237z"/>
	<polygon class="st0" points="1006.8,232.3 980.3,195.2 967.8,195.2 967.8,256 980.8,256 980.8,218.7 1007.7,256 1020.6,256 
		1020.6,195.2 1006.8,195.2 	"/>
	<rect x="789.7" y="195" class="st0" width="14.4" height="60.8"/>
	<polygon class="st0" points="926.5,255.8 962.5,255.8 962.5,244 940.8,244 940.8,231.5 962.5,231.5 962.5,219 940.8,219 
		940.8,206.8 962.5,206.8 962.5,195 926.5,195 	"/>
	<path class="st0" d="M827.9,195l-23.5,60.7v0.2h15.2l4.5-10.9h23.6l4.3,10.9h15.4l-23-60.8H827.9z M828.2,233.4l7.9-22.4l7.5,22.4
		H828.2z"/>
	<path class="st0" d="M894,223.9v11.4l15.6,0.1c-2.9,7.5-10.3,9.7-16.9,9.7c-9.7,0-19.1-8.9-19.1-19.3c0-11.4,8.8-19.6,18.5-19.7
		c7.7-0.1,13.8,3,17.1,8l11.3-5.1c-0.9-2.4-9.3-16.7-29.5-15.9c-21.2,0.8-31.4,19-31,32.8c0.6,18.7,14.2,32.2,32.3,32.2
		c14.9,0,32.3-9.3,32-34H894z"/>
</g>
<g id="_x38_VTYvN_00000087387020845165696350000017257812251988331926_">
	<g>
		<path class="st0" d="M0,61c3.6-0.6,7.1-1.4,10.7-1.9c5.4-0.7,10.9-1.4,16.4-1.8c5.7-0.4,11.4-0.6,17.1-0.7
			c5.2-0.1,10.4-0.1,15.6,0.1c5,0.2,9.9,0.7,14.9,1.1c4.4,0.4,8.9,0.8,13.3,1.3c3.2,0.4,6.4,0.8,9.5,1.4c1.8,0.3,2,0.7,2.1,2.5
			c0,0.6,0,1.2,0,1.9c0,27.4-0.1,54.8,0.1,82.2c0.1,7.8-2.7,14-8,19.5c-4.5,4.6-9.7,8.1-15.3,11.1c-7.2,3.9-15,6.7-22.8,9.2
			c-0.6,0.2-1.1,0.5-1.6,0.8c-1.5,0-2.9,0-4.4,0c-0.3-0.2-0.6-0.5-1-0.6c-4.2-1.5-8.4-2.8-12.6-4.4c-6.6-2.6-12.9-5.7-18.7-9.8
			c-4.3-3-8.2-6.4-11.1-10.7c-1.7-2.6-2.8-5.4-4.2-8.2C0,122.9,0,91.9,0,61z M49.7,186.6c5.5-13.9,10.7-27.2,16-40.4
			c5.3-13.4,10.6-26.8,15.8-40.2C86.6,92.8,92,79.7,96.5,66.3c-15.5,24.6-31,49.2-46.8,74.2c-8.1-12.8-15.9-25.1-23.6-37.5
			C18.4,90.8,10.7,78.5,2.4,66.6C18.1,106.4,33.8,146.2,49.7,186.6z"/>
	</g>
</g>
<g>
	<path class="st0" d="M4.7,245.4v-42.1l28.8,30.1v-27.4h6v41.9l-28.8-30v27.6H4.7z"/>
	<path class="st0" d="M47,232.8c0-3.6,1.3-6.7,3.9-9.2c2.6-2.5,5.7-3.8,9.4-3.8c3.7,0,6.9,1.3,9.5,3.8c2.6,2.5,3.8,5.7,3.8,9.4
		c0,3.7-1.3,6.9-3.9,9.4c-2.6,2.5-5.8,3.8-9.5,3.8c-3.7,0-6.9-1.3-9.4-3.8C48.3,239.8,47,236.6,47,232.8z M52.9,232.9
		c0,2.5,0.7,4.5,2,5.9c1.4,1.5,3.2,2.2,5.4,2.2c2.2,0,4-0.7,5.4-2.2c1.3-1.4,2-3.4,2-5.8c0-2.4-0.7-4.4-2-5.8
		c-1.4-1.5-3.2-2.2-5.4-2.2c-2.2,0-4,0.7-5.3,2.2C53.6,228.7,52.9,230.6,52.9,232.9z"/>
	<path class="st0" d="M81.8,220.5l6.5,14.2l7-16.5l7.1,16.5l6.4-14.2h6.4l-13,26.8l-6.9-16l-7,16l-13-26.8H81.8z"/>
	<path class="st0" d="M153.6,220.5h5.8v24.9h-5.8v-2.6c-2.4,2.2-4.9,3.3-7.6,3.3c-3.4,0-6.3-1.2-8.5-3.7c-2.2-2.5-3.3-5.7-3.3-9.5
		c0-3.7,1.1-6.8,3.3-9.3c2.2-2.5,5-3.7,8.4-3.7c2.9,0,5.5,1.2,7.8,3.6V220.5z M140,232.9c0,2.4,0.6,4.3,1.9,5.8c1.3,1.5,3,2.3,5,2.3
		c2.1,0,3.9-0.7,5.2-2.2c1.3-1.5,2-3.4,2-5.8s-0.7-4.3-2-5.8c-1.3-1.5-3-2.2-5.1-2.2c-2,0-3.6,0.8-5,2.2
		C140.6,228.8,140,230.6,140,232.9z"/>
	<path class="st0" d="M224.1,246.1h-7.5l-3.1-3.2c-3.3,2.1-7,3.2-11,3.2c-5.2,0-9.9-1.8-13.9-5.3c-4.4-3.9-6.6-8.9-6.6-15
		c0-5.9,2.1-10.9,6.3-14.9c4.1-3.8,8.8-5.8,14.4-5.8c5,0,9.5,1.7,13.5,5.1c4.8,4.1,7.2,9.3,7.2,15.9c0,5.1-1.9,9.7-5.6,13.6
		L224.1,246.1z M207.7,229.8l5.7,5.7c2.5-2.6,3.8-5.9,3.8-9.7c0-4.2-1.4-7.8-4.2-10.7c-2.8-2.9-6.3-4.3-10.5-4.3
		c-4.2,0-7.7,1.4-10.4,4.3c-2.7,2.8-4.1,6.4-4.1,10.8c0,4.3,1.4,7.7,4.2,10.5c2.9,2.8,6.3,4.2,10.1,4.2c2.6,0,4.9-0.6,7-1.8l-9.3-9
		H207.7z"/>
	<path class="st0" d="M236.6,205.9v39.5h-6v-39.5H236.6z"/>
	<path class="st0" d="M269.3,235.8h-16.9l-4.4,9.6h-6.4l19.5-41.9l18.8,41.9h-6.5L269.3,235.8z M266.9,230.2l-5.9-13.4l-6.1,13.4
		H266.9z"/>
	<path class="st0" d="M303.4,224.9h16.3v1.3c0,3-0.3,5.6-1,7.9c-0.7,2.1-1.8,4.1-3.4,5.9c-3.7,4.1-8.3,6.2-14,6.2
		c-5.5,0-10.2-2-14.2-6c-3.9-4-5.9-8.8-5.9-14.4c0-5.7,2-10.6,6-14.6c4-4,8.9-6,14.6-6c3.1,0,6,0.6,8.6,1.9c2.6,1.3,5.1,3.3,7.5,6.1
		l-4.2,4.1c-3.2-4.3-7.2-6.5-11.8-6.5c-4.2,0-7.7,1.4-10.5,4.3c-2.8,2.8-4.2,6.4-4.2,10.6c0,4.4,1.6,8,4.7,10.9c2.9,2.6,6.1,4,9.6,4
		c2.9,0,5.6-1,7.9-3c2.3-2,3.6-4.4,3.9-7.2h-9.8V224.9z"/>
	<path class="st0" d="M349,211.5h-15.8v9.5h15.4v5.6h-15.4v13.2H349v5.6h-21.8v-39.5H349V211.5z"/>
	<path class="st0" d="M356.8,245.4v-42.1l28.8,30.1v-27.4h6v41.9l-28.8-30v27.6H356.8z"/>
	<path class="st0" d="M435.4,221.6v7.6c-1.3-1.6-2.5-2.7-3.5-3.3c-1-0.6-2.2-0.9-3.6-0.9c-2.2,0-4,0.8-5.4,2.3
		c-1.4,1.5-2.1,3.4-2.1,5.7c0,2.3,0.7,4.3,2.1,5.8c1.4,1.5,3.2,2.2,5.3,2.2c1.4,0,2.6-0.3,3.7-0.9c1-0.6,2.2-1.7,3.6-3.4v7.6
		c-2.3,1.2-4.7,1.8-7,1.8c-3.9,0-7.1-1.2-9.7-3.7c-2.6-2.5-3.9-5.6-3.9-9.3c0-3.7,1.3-6.8,3.9-9.4s5.8-3.8,9.7-3.8
		C430.9,219.8,433.2,220.4,435.4,221.6z"/>
	<path class="st0" d="M439.8,232.8c0-3.6,1.3-6.7,3.9-9.2c2.6-2.5,5.7-3.8,9.4-3.8c3.7,0,6.9,1.3,9.5,3.8c2.6,2.5,3.8,5.7,3.8,9.4
		c0,3.7-1.3,6.9-3.9,9.4c-2.6,2.5-5.8,3.8-9.5,3.8c-3.7,0-6.9-1.3-9.4-3.8C441,239.8,439.8,236.6,439.8,232.8z M445.7,232.9
		c0,2.5,0.7,4.5,2,5.9c1.4,1.5,3.2,2.2,5.4,2.2c2.2,0,4-0.7,5.4-2.2c1.3-1.4,2-3.4,2-5.8c0-2.4-0.7-4.4-2-5.8
		c-1.4-1.5-3.2-2.2-5.4-2.2c-2.2,0-4,0.7-5.3,2.2C446.3,228.7,445.7,230.6,445.7,232.9z"/>
	<path class="st0" d="M472.4,220.5h5.8v2.3c1.1-1.2,2.1-1.9,2.8-2.4c0.8-0.4,1.9-0.6,3.1-0.6c2.8,0,5,1.2,6.7,3.7
		c1.8-2.5,4.3-3.7,7.3-3.7c5.6,0,8.4,3.4,8.4,10.2v15.4h-5.8v-13.8c0-2.4-0.3-4.1-0.9-5.1c-0.6-1-1.6-1.5-2.9-1.5
		c-1.6,0-2.7,0.6-3.5,1.8c-0.7,1.2-1.1,3.1-1.1,5.8v12.9h-5.8v-13.7c0-4.4-1.3-6.6-3.8-6.6c-1.6,0-2.8,0.6-3.5,1.8
		c-0.7,1.2-1.1,3.1-1.1,5.7v12.9h-5.8V220.5z"/>
	<path class="st0" d="M520.2,258.9h-5.8v-38.4h5.8v2.7c2.3-2.3,4.8-3.4,7.7-3.4c3.4,0,6.2,1.3,8.5,3.8c2.2,2.5,3.4,5.7,3.4,9.5
		c0,3.7-1.1,6.8-3.3,9.3c-2.2,2.5-5,3.7-8.4,3.7c-2.9,0-5.5-1.2-7.8-3.5V258.9z M533.9,233.1c0-2.4-0.6-4.3-1.9-5.8
		c-1.3-1.5-3-2.3-5-2.3c-2.1,0-3.8,0.7-5.1,2.2c-1.3,1.5-2,3.4-2,5.8c0,2.3,0.7,4.3,2,5.8c1.3,1.5,3,2.2,5.1,2.2
		c2,0,3.6-0.8,4.9-2.2C533.2,237.2,533.9,235.4,533.9,233.1z"/>
	<path class="st0" d="M564.2,220.5h5.8v24.9h-5.8v-2.6c-2.4,2.2-4.9,3.3-7.6,3.3c-3.4,0-6.3-1.2-8.5-3.7c-2.2-2.5-3.3-5.7-3.3-9.5
		c0-3.7,1.1-6.8,3.3-9.3c2.2-2.5,5-3.7,8.4-3.7c2.9,0,5.5,1.2,7.8,3.6V220.5z M550.5,232.9c0,2.4,0.6,4.3,1.9,5.8
		c1.3,1.5,3,2.3,5,2.3c2.1,0,3.9-0.7,5.2-2.2c1.3-1.5,2-3.4,2-5.8s-0.7-4.3-2-5.8c-1.3-1.5-3-2.2-5.1-2.2c-2,0-3.6,0.8-5,2.2
		C551.2,228.8,550.5,230.6,550.5,232.9z"/>
	<path class="st0" d="M577.2,220.5h5.8v2.3c2-2,4.3-3,6.8-3c2.9,0,5.2,0.9,6.8,2.7c1.4,1.6,2.1,4.1,2.1,7.6v15.3h-5.8v-13.9
		c0-2.5-0.3-4.1-1-5.1c-0.7-1-1.9-1.4-3.6-1.4c-1.9,0-3.3,0.6-4.1,1.9c-0.8,1.2-1.2,3.4-1.2,6.5v12h-5.8V220.5z"/>
	<path class="st0" d="M612.9,240.8l-11.2-20.3h6.7l7.6,14.3l7.1-14.3h6.5l-19.8,38.4h-6.6L612.9,240.8z"/>
</g>
<g>
	<path class="st0" d="M183,79.5h14.6l-30.2,86.3h-14.9l-30.1-86.3H137l18,53.6c0.9,2.6,1.9,5.9,3,9.9c1.1,4,1.8,7,2.1,9
		c0.5-3,1.3-6.5,2.4-10.4c1.1-3.9,1.9-6.8,2.6-8.7L183,79.5z"/>
	<path class="st0" d="M251.7,165.7h-48.8V79.5h48.8v11.9H217v23.5h32.5v11.8H217v27.1h34.7V165.7z"/>
	<path class="st0" d="M276.3,131.3v34.5h-14.1V79.5h24.4c11.1,0,19.4,2.1,24.7,6.3c5.3,4.2,8,10.5,8,18.9c0,10.7-5.6,18.4-16.8,23
		l24.4,38.2h-16.1l-20.7-34.5H276.3z M276.3,119.6h9.8c6.6,0,11.3-1.2,14.3-3.7c3-2.4,4.4-6.1,4.4-10.9c0-4.9-1.6-8.4-4.8-10.5
		c-3.2-2.1-8-3.2-14.4-3.2h-9.3V119.6z"/>
	<path class="st0" d="M407.4,122.5c0,14-3.5,25-10.5,32.8s-17,11.7-29.8,11.7c-13,0-23-3.9-30-11.6c-7-7.7-10.5-18.7-10.5-33
		c0-14.2,3.5-25.2,10.5-32.8s17-11.4,30.1-11.4c12.8,0,22.7,3.9,29.7,11.6C403.9,97.5,407.4,108.4,407.4,122.5z M341.6,122.5
		c0,10.6,2.1,18.7,6.4,24.2c4.3,5.5,10.6,8.2,19.1,8.2c8.4,0,14.7-2.7,19-8.1c4.3-5.4,6.4-13.5,6.4-24.3c0-10.6-2.1-18.6-6.3-24.1
		c-4.2-5.5-10.5-8.2-18.9-8.2c-8.5,0-14.8,2.7-19.1,8.2C343.7,103.9,341.6,111.9,341.6,122.5z"/>
	<path class="st0" d="M453.8,118.9h31.7v43.3c-5.2,1.7-10.2,2.9-15,3.6s-9.9,1.1-15.5,1.1c-13.1,0-23.1-3.9-30.2-11.6
		s-10.6-18.6-10.6-32.7c0-13.9,4-24.8,12-32.6c8-7.8,19-11.8,33-11.8c9,0,17.5,1.7,25.6,5.2l-5,11.7c-7-3.2-14-4.8-21-4.8
		c-9.2,0-16.5,2.9-21.8,8.7c-5.4,5.8-8,13.7-8,23.7c0,10.5,2.4,18.6,7.2,24c4.8,5.5,11.8,8.2,20.8,8.2c4.6,0,9.4-0.6,14.6-1.7V131
		h-17.9V118.9z"/>
	<path class="st0" d="M547.5,165.7h-48.8V79.5h48.8v11.9h-34.7v23.5h32.5v11.8h-32.5v27.1h34.7V165.7z"/>
	<path class="st0" d="M629.9,165.7h-17.3L570.2,97h-0.5l0.3,3.8c0.6,7.3,0.8,14,0.8,20.1v44.8H558V79.5h17.1l42.3,68.4h0.4
		c-0.1-0.9-0.2-4.2-0.5-9.9c-0.2-5.7-0.4-10.1-0.4-13.3V79.5h12.9V165.7z"/>
</g>
</svg>
